# xmcd
# 
# Track frame offsets:
#     151
#     12243
#     25693
#     47269
#     58356
#     72648
#     88642
#     100684
#     110695
#     125477
#     140692
#     154743
#     168583
#     186313
#     196436
# 
# Disc length: 2793
# 
# Revision: 2
# Processed by: cddbd v1.5.2PL0 Copyright (c) Steve Scherf et al.
# Submitted via: fre:ac v1.0.17
# 
DISCID=d50ae70f
DTITLE=jazz - ジャズピアノ名演集９
DYEAR=0
DGENRE=Jazz
TTITLE0=Mary Lou Williams - Humoresque
TTITLE1=Count Basie and His Orchestra - How Long Blues
TTITLE2=Bud Powel - Un Poco Loco
TTITLE3=Teddy Wilson - Liza
TTITLE4=George Shearing - Summertime
TTITLE5=Thelonious Monk - Four In One
TTITLE6=Art Tatum - Sweet Lorraine
TTITLE7=Oscar Peterson - Rose Room
TTITLE8=Erroll Garner - Lover Come Back To Me
TTITLE9=George Shearing - Lonely Moments
TTITLE10=George Shearing - Sophisticated Lady
TTITLE11=Teddy Wilson - Just You, Just Me
TTITLE12=Fats Waller - Ain't Misbehavin'
TTITLE13=Mary Lou Williams - Blue Skies
TTITLE14=Mary Lou Williams - Fifth Dimension
EXTD=
EXTT0=
EXTT1=
EXTT2=
EXTT3=
EXTT4=
EXTT5=
EXTT6=
EXTT7=
EXTT8=
EXTT9=
EXTT10=
EXTT11=
EXTT12=
EXTT13=
EXTT14=
PLAYORDER=
